<?xml version="1.0" encoding="utf-8"?>
<!-- Generator: Adobe Illustrator 19.0.0, SVG Export Plug-In . SVG Version: 6.00 Build 0)  -->
<svg version="1.1" id="Layer_1" xmlns="http://www.w3.org/2000/svg" xmlns:xlink="http://www.w3.org/1999/xlink" x="0px" y="0px"
	 viewBox="137 -82.7 574.7 464.7" style="enable-background:new 137 -82.7 574.7 464.7;" xml:space="preserve">
<style type="text/css">
	.st0{opacity:0.66;fill:#0086D1;enable-background:new    ;}
	.st1{fill:#FFFFFF;}
	.st2{fill:none;}
	.st3{fill:none;stroke:#191919;stroke-width:13;stroke-miterlimit:10;}
	.st4{fill:#2B2B2B;}
	.st5{opacity:0.49;enable-background:new    ;}
	.st6{fill:#BCDAF3;}
	.st7{opacity:0.49;fill:#BCDAF3;enable-background:new    ;}
	.st8{opacity:0.38;fill:#FB8C00;enable-background:new    ;}
	.st9{fill:none;stroke:#9B9B9B;stroke-miterlimit:10;}
	.st10{fill:none;stroke:#9B9B9B;stroke-miterlimit:10;stroke-dasharray:7.8603,7.8603;}
	.st11{fill:none;stroke:#9B9B9B;stroke-miterlimit:10;stroke-dasharray:5.9351,5.9351;}
	.st12{fill:none;stroke:#9B9B9B;stroke-miterlimit:10;stroke-dasharray:7;}
	.st13{fill:#FB8C00;}
	.st14{fill:#616161;}
	.st15{fill:#2F3187;}
	.st16{fill:#C6C6C6;}
	.st17{fill:#00ADEF;}
	.st18{fill:#85C808;}
	.st19{fill:none;stroke:#FB8C00;stroke-width:3;stroke-miterlimit:10;}
	.st20{fill:#B3B3B3;}
</style>
<g id="desktop">
	<path id="settings" class="st0" d="M278.3,70.4c0.3-10.3,8.8-18.4,19.1-18.2c10.3,0.3,18.4,8.8,18.2,19.1
		c-0.1,4.4-1.7,8.3-4.3,11.5l30,0.2c0.2-0.5,0.3-1,0.4-1.4c0.1-0.5-0.1-0.9-0.4-1.3l-7.9-5.8c-0.3-0.3-0.5-0.5-0.5-1l0.1-3.7
		c0-0.4,0.2-0.7,0.5-0.9l8.2-5.7c0.3-0.3,0.5-0.7,0.5-1.1c-0.8-6.8-5.1-14.2-6.4-16.4c-0.3-0.4-0.7-0.5-1.1-0.5l-9.7,1.4
		c-0.4,0.1-0.7-0.1-1-0.3l-2.7-2.6c-0.3-0.3-0.4-0.7-0.3-1.1l2.1-9.5c0.1-0.5-0.1-0.9-0.4-1.3c-6.1-4.4-13.9-6.8-16.3-7.4
		c-0.5-0.1-0.9,0.1-1.3,0.4l-6,8.3c-0.2,0.3-0.5,0.5-0.9,0.5h-3.8c-0.4,0-0.8-0.2-1-0.5l-5.2-8.5c-0.3-0.4-0.8-0.7-1.3-0.5
		c-9.7,2.6-14.8,5.7-16.4,6.8c-0.4,0.3-0.5,0.7-0.5,1.1l1.4,9.3c0.1,0.4-0.1,0.8-0.4,1.1l-3.2,2.8c-0.3,0.3-0.7,0.3-1.1,0.3
		l-8.7-2.1c-0.5-0.1-1,0.1-1.3,0.5c-5,7.8-6.7,14.3-7.2,16.4c-0.1,0.4,0.1,0.9,0.5,1.2l7.8,5.8c0.3,0.2,0.5,0.5,0.5,0.9v3.5
		c0,0.4-0.2,0.7-0.5,1l-8.2,5.8c-0.4,0.3-0.5,0.7-0.5,1.1c0.1,0.9,0.3,1.8,0.5,2.7l32.9,0.2C279.8,79.3,278.2,75,278.3,70.4z"/>
	<rect x="240.3" y="89.2" class="st1" width="340.6" height="226.8"/>
	<polyline id="XMLID_8_" class="st2" points="573.1,111.7 573.1,278.6 268.2,278.6 268.2,93.3 573.1,93.3 573.1,111.7 	"/>
	<g id="XMLID_1_">
		<path class="st3" d="M583.8,316H236.9V97.2c0-6.2,5-11.3,11.3-11.3h324.4c6.2,0,11.3,5,11.3,11.3L583.8,316L583.8,316z"/>
		<polygon class="st4" points="205.4,323 616.6,323 612.9,338.5 210.7,338.5 		"/>
	</g>
	<g id="lines" class="st5">
		<path id="XMLID_29_" class="st6" d="M467.6,123.1h-192c-1,0-1.9-0.6-1.9-1.3V115c0-0.7,0.9-1.3,1.9-1.3h191.9c1,0,1.9,0.6,1.9,1.3
			v6.8C469.4,122.6,468.7,123.1,467.6,123.1z"/>
		<path id="XMLID_32_" class="st6" d="M467.6,139.2h-192c-1,0-1.9-0.6-1.9-1.3v-6.8c0-0.7,0.9-1.3,1.9-1.3h191.9
			c1,0,1.9,0.6,1.9,1.3v6.8C469.4,138.6,468.7,139.2,467.6,139.2z"/>
		<path id="XMLID_34_" class="st6" d="M467.6,171.9h-192c-1,0-1.9-0.6-1.9-1.3v-6.8c0-0.7,0.9-1.3,1.9-1.3h191.9
			c1,0,1.9,0.6,1.9,1.3v6.8C469.4,171.3,468.7,171.9,467.6,171.9z"/>
		<path id="XMLID_33_" class="st6" d="M365.6,155.9h-90c-1,0-1.9-0.6-1.9-1.3v-6.8c0-0.7,0.9-1.3,1.9-1.3h90c1,0,1.9,0.6,1.9,1.3
			v6.8C367.5,155.3,366.6,155.9,365.6,155.9z"/>
	</g>
	<path id="XMLID_11_" class="st7" d="M541.9,201H504c-3.6,0-6.6-2-6.6-4.4v-78.5c0-2.4,3-4.4,6.6-4.4h37.9c3.6,0,6.6,2,6.6,4.4v78.5
		C548.4,199,545.4,201,541.9,201z"/>
	<path id="XMLID_10_" class="st7" d="M541.4,297.5h-37.6c-3.6,0-6.5-3.2-6.5-7V216c0-3.8,3-7,6.5-7h37.6c3.6,0,6.5,3.2,6.5,7v74.6
		C547.9,294.3,545,297.5,541.4,297.5z"/>
	<path class="st7" d="M359.8,297.5h-84.5c-0.9,0-1.6-0.7-1.6-1.6V185.1c0-0.9,0.7-1.6,1.6-1.6h84.5c0.9,0,1.6,0.7,1.6,1.6v110.8
		C361.4,296.8,360.7,297.5,359.8,297.5z"/>
	<path class="st7" d="M466.1,297.5h-84.5c-0.9,0-1.6-0.7-1.6-1.6V185.1c0-0.9,0.7-1.6,1.6-1.6h84.5c0.9,0,1.6,0.7,1.6,1.6v110.8
		C467.7,296.8,467,297.5,466.1,297.5z"/>
</g>
<path class="st8" d="M652.2,350.3c2.1,0,2.8-1.1,3.6-2c1.7-1.7,3.9-1,3.9,1.8V363h12.9c2.8,0,3.5-2.1,1.8-3.9c-0.8-0.8-2-1.6-2-3.6
	c0-2.3,2.4-5.3,6.4-5.3s6.4,3,6.4,5.3c0,2.1-1.1,2.8-2,3.6c-1.7,1.7-1,3.9,1.8,3.9h12.9v-12.9c0-2.8-2.1-3.5-3.9-1.8
	c-0.8,0.8-1.6,2-3.6,2c-2.3,0-5.3-2.4-5.3-6.4s3-6.4,5.3-6.4c2.1,0,2.8,1.1,3.6,2c1.7,1.7,3.9,1,3.9-1.8v-12.9H685
	c-2.8,0-3.5-2.1-1.8-3.9c0.8-0.8,2-1.6,2-3.6c0-2.3-2.4-5.3-6.4-5.3s-6.4,3-6.4,5.3c0,2.1,1.1,2.8,2,3.6c1.7,1.7,1,3.9-1.8,3.9
	h-12.9v12.9c0,2.8-2.1,3.5-3.9,1.8c-0.8-0.8-1.6-2-3.6-2c-2.3,0-5.3,2.4-5.3,6.4S649.9,350.3,652.2,350.3z"/>
<g>
	<g>
		<line class="st9" x1="575.8" y1="55.5" x2="568.9" y2="55.5"/>
		<line class="st10" x1="553.3" y1="55.5" x2="499" y2="55.5"/>
		<polyline class="st9" points="491.3,55.5 484.4,55.5 484.4,59 		"/>
		<line class="st11" x1="484.4" y1="64.9" x2="484.4" y2="73.8"/>
		<line class="st9" x1="484.4" y1="76.8" x2="484.4" y2="80.3"/>
	</g>
</g>
<polyline class="st12" points="230,134.5 187.9,134.5 187.9,196.1 "/>
<line class="st12" x1="450.3" y1="-13" x2="450.3" y2="78.5"/>
<polyline class="st12" points="435.3,-18.2 607,-18.2 607,35.9 "/>
<polyline class="st12" points="612.9,83.7 612.9,167.2 588.8,167.2 "/>
<polyline class="st12" points="623.5,78.9 675.3,78.9 675.3,312 "/>
<g>
	<path class="st13" d="M445.6,247.1l34.9-86.4h-23.1l-23.9,55.8l-17-55.8h-17.8l-18.2,55.8l-12.9-25.4L356,226.9l11.8,20.2h22.8
		l16.5-50.1l15.7,50.1L445.6,247.1z"/>
	<path class="st14" d="M318.9,217.4h14.2c4.3,0,8.1-0.5,11.5-1.4l3.7-11.3l10.3-31.7c-0.8-1.3-1.7-2.4-2.7-3.5
		c-5.3-5.8-13-8.8-23.2-8.8H297v86.4h21.9V217.4z M337.7,180.6c2.1,2.1,3.1,4.9,3.1,8.3c0,3.5-0.9,6.3-2.7,8.3
		c-2,2.3-5.6,3.4-11,3.4h-8.2v-23.2h8.3C332.2,177.5,335.7,178.5,337.7,180.6L337.7,180.6z M466.3,231.6l6.6-16.8h19.2l-9.1-25.4
		l11.4-28.7l32.6,86.4h-24l-5.6-15.5L466.3,231.6z"/>
</g>
<g id="iphone">
	<g id="XMLID_9_">
		<path class="st1" d="M174.3,366.1c-3.4,0-6.1-2.7-6.1-6.1V204c0-3.4,2.7-6.1,6.1-6.1h75.9c3.4,0,6.1,2.7,6.1,6.1v155.9
			c0,3.4-2.7,6.1-6.1,6.1h-75.9V366.1z"/>
		<path class="st15" d="M250.2,200.5c2,0,3.6,1.6,3.6,3.6V360c0,2-1.6,3.6-3.6,3.6h-75.9c-2,0-3.6-1.6-3.6-3.6V204
			c0-2,1.6-3.6,3.6-3.6h75.9 M250.2,195.5h-75.9c-4.7,0-8.6,3.8-8.6,8.6V360c0,4.7,3.8,8.6,8.6,8.6h75.9c4.7,0,8.6-3.8,8.6-8.6V204
			C258.8,199.3,254.9,195.5,250.2,195.5L250.2,195.5z"/>
	</g>
	<path id="XMLID_2_" class="st15" d="M254.6,219.6h-84.8c-1.1,0-2.1-0.9-2.1-2.1v-16.2c0-1.1,0.9-2.1,2.1-2.1h84.8
		c1.1,0,2.1,0.9,2.1,2.1v16.2C256.7,218.6,255.8,219.6,254.6,219.6z"/>
	<path id="XMLID_6_" class="st15" d="M254.6,365h-84.8c-1.1,0-2.1-0.9-2.1-2.1V340c0-1.1,0.9-2.1,2.1-2.1h84.8
		c1.1,0,2.1,0.9,2.1,2.1v22.9C256.7,364,255.8,365,254.6,365z"/>
	<path id="XMLID_5_" class="st1" d="M219.5,208.6h-16.7c-0.9,0-1.7-0.8-1.7-1.7v-0.7c0-0.9,0.8-1.7,1.7-1.7h16.7
		c0.9,0,1.7,0.8,1.7,1.7v0.7C221.3,207.8,220.5,208.6,219.5,208.6z"/>
	<circle id="XMLID_3_" class="st1" cx="212.4" cy="352.3" r="5.6"/>
</g>
<path class="st16" d="M461.4-37.8c0.5-1.1,0.8-2.4,0.8-3.7c0-5.7-5.2-10.3-11.5-10.3c-2.4,0-4.6,0.6-6.4,1.7
	c-3.3-5.1-9.5-8.6-16.6-8.6c-10.6,0-19.2,7.7-19.2,17.1c0,0.3,0,0.6,0,0.9c-6.7,2.1-11.5,7.8-11.5,14.6c0,8.5,7.7,15.4,17.3,15.4
	h44.2c8.5,0,15.4-6.1,15.4-13.7C473.7-31,468.4-36.6,461.4-37.8z"/>
<path class="st17" d="M282.8-48.9l17-2.3v16.4l-17,0.1V-48.9z M299.8-32.9v16.5l-17-2.3v-14.2H299.8z M301.9-51.5l22.6-3.3V-35
	l-22.6,0.2V-51.5z M324.5-32.7V-13l-22.6-3.2v-16.6L324.5-32.7z"/>
<polyline class="st12" points="174.3,195.5 174.3,-31 208.6,-31 "/>
<g>
	<g>
		<path class="st18" d="M188.9,40.9c0,1-0.8,1.8-1.8,1.8h-26.8c-1,0-1.8-0.8-1.8-1.8V17.1c0-1,0.8-1.8,1.8-1.8h26.8
			c1,0,1.8,0.8,1.8,1.8V40.9z"/>
		<rect x="158.5" y="15.2" class="st18" width="30.5" height="12.5"/>
	</g>
	<g>
		<path class="st18" d="M197,32c0,1.8-1.5,3.2-3.2,3.2l0,0c-1.8,0-3.2-1.5-3.2-3.2V17.4c0-1.8,1.5-3.2,3.2-3.2l0,0
			c1.8,0,3.2,1.5,3.2,3.2V32z"/>
		<path class="st18" d="M156.8,32c0,1.8-1.5,3.2-3.2,3.2l0,0c-1.8,0-3.2-1.5-3.2-3.2V17.4c0-1.8,1.5-3.2,3.2-3.2l0,0
			c1.8,0,3.2,1.5,3.2,3.2V32z"/>
	</g>
	<path class="st18" d="M158.6,13.4c0,0,0.3-12.9,15.1-12.8c14.6,0,15.1,12.8,15.1,12.8H158.6z"/>
	<g>
		<circle class="st1" cx="167.1" cy="6.9" r="1.8"/>
		<circle class="st1" cx="180.3" cy="6.9" r="1.8"/>
	</g>
	<g>
		<path class="st18" d="M166.6,2.3c0.1,0.1,0.2,0.1,0.4-0.1l0,0c0.1-0.1,0.2-0.3,0.2-0.3l-2.8-4c-0.1-0.1-0.2-0.1-0.4,0.1l0,0
			c-0.2,0.1-0.2,0.3-0.2,0.3L166.6,2.3z"/>
		<path class="st18" d="M180.8,2.3c-0.1,0.1-0.2,0.1-0.4-0.1l0,0c-0.1-0.1-0.2-0.3-0.2-0.3l2.8-4c0.1-0.1,0.2-0.1,0.4,0.1l0,0
			c0.2,0.1,0.2,0.3,0.2,0.3L180.8,2.3z"/>
	</g>
	<g>
		<path class="st18" d="M183.2,50.8c0,1.8-1.5,3.2-3.2,3.2l0,0c-1.8,0-3.2-1.5-3.2-3.2V36.3c0-1.8,1.5-3.2,3.2-3.2l0,0
			c1.8,0,3.2,1.5,3.2,3.2V50.8z"/>
		<path class="st18" d="M170.7,50.8c0,1.8-1.5,3.2-3.2,3.2l0,0c-1.8,0-3.2-1.5-3.2-3.2V36.3c0-1.8,1.5-3.2,3.2-3.2l0,0
			c1.8,0,3.2,1.5,3.2,3.2V50.8z"/>
	</g>
</g>
<path class="st12" d="M252.2-34.7"/>
<line class="st12" x1="333" y1="-31" x2="401.7" y2="-31"/>
<line class="st12" x1="249.1" y1="-34.7" x2="279.7" y2="-34.8"/>
<line class="st12" x1="371.5" y1="-31" x2="371.5" y2="78.5"/>
<g id="globe_3_">
	<circle class="st19" cx="607" cy="58.3" r="23.6"/>
	<path class="st19" d="M587.4,71.5c4.2-2.6,34.9-2.6,39.1,0"/>
	<path class="st19" d="M586.5,46.6c4.1,2.7,36.9,2.7,41,0"/>
	<path class="st19" d="M618.3,58.3c0,13-8.2,23.6-11.3,23.6s-11.3-10.6-11.3-23.6s8.2-23.6,11.3-23.6S618.3,45.3,618.3,58.3z"/>
	<line class="st19" x1="583.4" y1="59.3" x2="630.6" y2="59.3"/>
</g>
<g id="lines_1_" class="st5">
	<path id="XMLID_13_" class="st6" d="M246.3,234.1h-67.7c-0.4,0-0.7-0.6-0.7-1.3V226c0-0.7,0.3-1.3,0.7-1.3h67.7
		c0.4,0,0.7,0.6,0.7,1.3v6.8C246.9,233.6,246.7,234.1,246.3,234.1z"/>
	<path id="XMLID_12_" class="st6" d="M246.3,250.2h-67.7c-0.4,0-0.7-0.6-0.7-1.3v-6.8c0-0.7,0.3-1.3,0.7-1.3h67.7
		c0.4,0,0.7,0.6,0.7,1.3v6.8C246.9,249.6,246.7,250.2,246.3,250.2z"/>
	<path id="XMLID_4_" class="st6" d="M210.3,266.9h-31.8c-0.4,0-0.7-0.6-0.7-1.3v-6.8c0-0.7,0.3-1.3,0.7-1.3h31.8
		c0.4,0,0.7,0.6,0.7,1.3v6.8C210.9,266.3,210.6,266.9,210.3,266.9z"/>
</g>
<path class="st7" d="M245.6,330.7h-67c-0.7,0-1.3-0.4-1.3-0.8v-55.4c0-0.5,0.6-0.8,1.3-0.8h67c0.7,0,1.3,0.4,1.3,0.8v55.4
	C246.9,330.4,246.3,330.7,245.6,330.7z"/>
<g id="g186" transform="matrix(54.85,0,0,-54.85,-2485.383,4815.859)">
	<path id="path188" class="st20" d="M49.7,88.4c0,0.1,0.1,0.2,0.1,0.2c0,0.1-0.1,0.1-0.2,0.1c-0.1,0-0.1,0-0.2,0s-0.1,0-0.1,0
		c-0.1,0-0.1,0-0.2-0.1c-0.1-0.1,0-0.3,0.1-0.4c0-0.1,0.1-0.1,0.1-0.1c0.1,0,0.1,0,0.1,0s0.1,0,0.1,0c0.1,0,0.1,0.1,0.1,0.1
		c0,0.1,0.1,0.1,0.1,0.1C49.8,88.2,49.7,88.3,49.7,88.4"/>
</g>
<path id="path190" class="st20" d="M233.7-50.2c1.6-1.9,2.7-4.6,2.4-7.3c-2.3,0.1-5.1,1.5-6.7,3.4c-1.5,1.7-2.8,4.4-2.4,7
	C229.5-46.7,232.1-48.2,233.7-50.2"/>
<polyline class="st12" points="258.8,351.1 469.4,351.1 469.4,338.7 "/>
</svg>
